# xmcd CD database file
#
# Track frame offsets:
#	150
#	23850
#	42567
#	58382
#
# Disc length: 1089 seconds
#
# Revision: 0
# Processed by: cddbd v1.5.2PL0 Copyright (c) Steve Scherf et al.
# Submitted via: CD2WAV32(JP) R3.22
#
DISCID=36043f04
DTITLE=奥 華子 - 手紙
DYEAR=2008
DGENRE=JPop
TTITLE0=手紙
TTITLE1=空に光るクローバー
TTITLE2=白いハート
TTITLE3=手紙 -instrumental-
EXTD=
EXTT0=
EXTT1=「ちーちゃんは悠久の向こう」 主題歌
EXTT2=
EXTT3=
PLAYORDER=
